<svg width="498" height="520" viewBox="0 0 498 520" fill="none" xmlns="http://www.w3.org/2000/svg">
<path d="M365 450.002C398.367 504.5 492.8 518.301 498 519.501C427.502 464.853 405 417.501 417 330.002C421.251 353.926 425.835 364.435 439.5 376.002C603.5 86.5007 263.5 -111.999 73.9999 70.0007C-109.252 246 71 605.5 365 450.002Z" fill="url(#paint0_linear_1621_11)"/>
<path d="M354.5 330.5C300.5 411.5 141 402.5 127 264C122 383 260.5 455.5 354.5 372.5C450.765 287.5 393 136.5 260.5 131.5C354.5 152.5 413 237.5 354.5 330.5Z" fill="#D9D9D9"/>
<path d="M106.406 168.99C174.691 45.167 403.76 41.0073 439.052 241.217C433.079 67.3521 227.037 -23.2497 101.774 107.817C-26.5061 242.042 72.7465 455.72 262.766 448.657C126.035 428.247 33.0097 310.778 106.406 168.99Z" fill="#D9D9D9"/>
<defs>
<linearGradient id="paint0_linear_1621_11" x1="513.796" y1="545.806" x2="50.9999" y2="58" gradientUnits="userSpaceOnUse">
<stop offset="0.185" stop-color="#D50095"/>
<stop offset="0.397783" stop-color="#260DB4" stop-opacity="0.75"/>
<stop offset="0.742681" stop-color="#0DA8D3"/>
<stop offset="1" stop-color="#1CFB2B"/>
</linearGradient>
</defs>
</svg>
